<?xml version="1.0" standalone="no"?>
<!DOCTYPE svg PUBLIC "-//W3C//DTD SVG 20010904//EN"
 "http://www.w3.org/TR/2001/REC-SVG-20010904/DTD/svg10.dtd">
<svg version="1.0" xmlns="http://www.w3.org/2000/svg"
 width="621.000000pt" height="275.000000pt" viewBox="0 0 621.000000 275.000000"
 preserveAspectRatio="xMidYMid meet">

<g transform="translate(0.000000,275.000000) scale(0.100000,-0.100000)"
fill="#000000" stroke="none">
<path d="M2045 2582 c-6 -5 -29 -14 -53 -21 -24 -7 -51 -20 -61 -29 -47 -46
-114 -98 -133 -102 -11 -3 -61 -1 -112 4 -50 5 -120 9 -156 8 -80 0 -238 -19
-265 -31 -11 -5 -45 -15 -75 -22 -30 -7 -62 -16 -70 -20 -8 -4 -54 -27 -102
-50 -49 -23 -88 -45 -88 -49 0 -4 -11 -12 -25 -18 -34 -16 -202 -174 -240
-226 -11 -16 -24 -34 -30 -40 -28 -33 -112 -200 -131 -261 -61 -196 -58 -178
-58 -393 -1 -168 2 -205 14 -212 8 -5 12 -10 8 -10 -10 0 49 -210 62 -220 4
-3 10 -18 14 -35 4 -16 11 -32 15 -35 4 -3 20 -32 36 -65 17 -33 36 -66 44
-74 16 -18 8 -101 -12 -113 -17 -11 -17 -250 1 -255 6 -3 12 -11 12 -19 0 -23
63 -80 113 -103 63 -29 168 -29 228 0 61 29 91 46 98 56 3 5 22 18 43 30 33
19 40 20 76 8 21 -8 62 -17 91 -21 28 -4 54 -11 57 -15 8 -13 364 -12 364 1 0
6 18 10 40 10 50 0 136 17 177 36 17 8 38 14 46 14 9 0 18 4 22 9 3 5 19 12
35 16 17 4 30 10 30 15 0 4 12 13 28 19 77 32 157 98 242 200 41 50 59 80 60
101 0 18 -34 50 -53 50 -15 0 -49 -32 -96 -89 -19 -22 -38 -41 -43 -41 -4 0
-16 -8 -27 -18 -33 -30 -65 -52 -77 -52 -7 0 -14 -6 -17 -14 -3 -8 -19 -17
-35 -21 -17 -3 -32 -12 -35 -18 -6 -16 -121 -72 -172 -83 -16 -4 -34 -10 -40
-14 -14 -11 -178 -30 -260 -30 -84 0 -248 19 -255 30 -3 4 -22 10 -44 14 -21
4 -46 11 -55 16 -9 5 -43 21 -76 36 -33 14 -64 33 -68 40 -4 8 -12 14 -18 14
-13 0 -72 41 -82 57 -4 7 -13 13 -18 13 -19 0 -218 208 -225 234 -3 14 -9 26
-13 26 -9 0 -61 100 -61 118 0 6 -4 12 -10 12 -5 0 -10 7 -10 16 0 9 -7 30
-15 48 -49 102 -64 374 -31 536 9 47 21 89 27 95 5 5 9 15 9 23 0 28 60 152
109 226 14 21 31 46 36 54 6 8 45 51 88 94 43 43 75 83 72 88 -3 5 0 12 6 16
8 4 9 3 5 -4 -4 -7 -4 -12 -1 -12 7 0 94 65 125 93 14 13 33 22 142 71 20 9
42 16 50 16 8 0 18 4 24 10 27 27 375 62 418 42 12 -6 57 -15 100 -21 44 -6
84 -15 90 -20 6 -5 26 -12 44 -16 17 -3 32 -11 32 -16 0 -5 6 -9 12 -9 19 0
118 -52 118 -62 0 -4 6 -8 13 -8 7 0 23 -10 35 -22 11 -13 40 -39 63 -58 23
-19 49 -43 58 -53 9 -10 28 -32 43 -49 15 -16 31 -27 37 -24 7 4 8 1 5 -8 -3
-8 5 -28 17 -45 17 -23 31 -31 54 -31 17 0 36 5 42 11 15 15 -3 75 -33 107
-13 15 -34 45 -46 69 -20 38 -21 45 -9 65 9 14 16 62 19 120 4 86 2 102 -18
144 -31 62 -76 108 -125 125 -22 7 -44 17 -49 21 -13 11 -109 10 -121 0z m133
-122 c2 -6 10 -10 17 -10 18 0 55 -48 55 -71 0 -11 5 -19 10 -19 6 0 10 -18
10 -40 0 -22 -4 -40 -9 -40 -5 0 -11 -10 -13 -22 -2 -17 -11 -24 -30 -26 -16
-2 -28 1 -28 7 0 6 -7 11 -15 11 -9 0 -18 6 -21 14 -3 8 -17 17 -32 21 -15 4
-29 10 -32 14 -6 10 -115 61 -129 61 -5 0 -13 9 -16 20 -7 23 24 55 63 66 12
3 22 10 22 14 0 20 142 20 148 0z m-1349 -1956 c19 -16 42 -37 52 -46 11 -10
23 -18 29 -18 5 0 13 -7 18 -17 6 -10 16 -14 26 -10 10 4 14 3 11 -3 -7 -11
40 -44 52 -37 4 3 8 -10 8 -28 0 -18 -3 -31 -8 -28 -4 2 -19 -5 -33 -16 -15
-12 -35 -21 -45 -21 -11 0 -19 -4 -19 -10 0 -5 -22 -10 -50 -10 -27 0 -50 4
-50 9 0 5 -11 12 -25 15 -56 14 -95 75 -95 148 0 38 23 97 43 110 15 9 47 -5
86 -38z"/>
<path d="M4138 1829 c-17 -9 -18 -42 -18 -454 0 -429 1 -445 19 -455 27 -14
37 -13 55 6 13 12 16 38 16 118 l0 103 39 31 c22 18 42 32 45 32 3 0 60 -68
127 -150 123 -152 146 -169 177 -138 25 25 9 55 -108 200 -66 82 -120 153
-120 157 0 5 54 57 120 116 68 61 120 116 120 126 0 23 -37 49 -59 41 -9 -3
-88 -71 -176 -150 l-160 -145 -5 276 c-3 151 -7 277 -10 280 -13 12 -47 15
-62 6z"/>
<path d="M2798 1545 c-64 -21 -149 -100 -179 -167 -33 -75 -33 -211 -1 -283
51 -112 148 -176 278 -183 148 -8 254 51 315 173 28 58 32 75 32 150 0 75 -4
92 -32 149 -33 67 -81 116 -151 152 -47 24 -197 29 -262 9z m229 -96 c70 -33
123 -126 123 -215 0 -43 -26 -120 -53 -156 -33 -45 -110 -78 -181 -78 -140 1
-227 91 -227 235 0 71 19 127 59 168 71 76 179 93 279 46z"/>
<path d="M3534 1539 c-67 -26 -123 -75 -159 -140 -25 -46 -30 -68 -33 -144 -3
-75 0 -100 18 -149 59 -156 239 -234 418 -181 68 20 151 97 183 167 34 76 34
210 0 286 -32 70 -115 147 -183 167 -72 21 -181 19 -244 -6z m185 -70 c62 -13
132 -72 156 -131 10 -24 17 -70 17 -103 1 -142 -89 -235 -227 -235 -76 0 -130
25 -177 79 -54 63 -69 139 -46 229 16 65 97 146 159 160 60 13 61 13 118 1z"/>
<path d="M4852 1547 c-87 -27 -143 -119 -122 -197 19 -71 90 -118 218 -145
125 -26 172 -55 172 -107 0 -68 -48 -98 -157 -98 -72 0 -128 19 -172 59 -13
11 -32 21 -41 21 -20 0 -50 -31 -50 -51 0 -23 49 -65 105 -91 43 -20 66 -23
161 -23 106 0 113 1 160 30 112 70 125 193 28 273 -38 31 -72 44 -206 75 -80
19 -116 40 -124 74 -27 108 160 151 272 62 76 -60 144 -12 77 56 -51 51 -118
75 -208 74 -44 -1 -95 -6 -113 -12z"/>
<path d="M5275 1540 c-18 -20 -16 -26 120 -300 l138 -280 -62 -140 c-40 -91
-60 -148 -56 -160 8 -26 52 -37 70 -19 13 14 103 206 254 547 44 97 93 206
110 242 17 36 31 75 31 88 0 28 -43 51 -67 36 -13 -8 -181 -366 -215 -456 -5
-16 -13 -28 -17 -28 -3 0 -56 102 -116 228 -60 125 -115 235 -123 245 -20 23
-45 22 -67 -3z"/>
<path d="M1356 1469 c-14 -16 -26 -35 -26 -43 0 -18 25 -38 35 -28 5 4 5 2 1
-5 -3 -6 -1 -17 6 -23 48 -40 63 -50 75 -50 7 0 16 -7 19 -15 4 -8 10 -15 15
-15 4 0 29 -14 54 -31 85 -58 147 -59 157 -4 6 31 -27 79 -49 71 -8 -3 -11 -2
-8 4 6 10 -121 110 -141 110 -7 0 -14 4 -16 9 -1 4 -24 17 -50 29 l-46 20 -26
-29z"/>
</g>
</svg>
