<?xml version="1.0" encoding="UTF-8" standalone="no"?>
<!-- Created with Inkscape (http://www.inkscape.org/) -->

<svg
   width="508.63971"
   height="608.35614"
   viewBox="0 0 508.63971 608.35614"
   version="1.1"
   id="svg1"
   xml:space="preserve"
   sodipodi:docname="Cooksy.svg"
   inkscape:version="1.3.2 (091e20e, 2023-11-25, custom)"
   xmlns:inkscape="http://www.inkscape.org/namespaces/inkscape"
   xmlns:sodipodi="http://sodipodi.sourceforge.net/DTD/sodipodi-0.dtd"
   xmlns="http://www.w3.org/2000/svg"
   xmlns:svg="http://www.w3.org/2000/svg"><sodipodi:namedview
     id="namedview1"
     pagecolor="#ffffff"
     bordercolor="#000000"
     borderopacity="0.25"
     inkscape:showpageshadow="2"
     inkscape:pageopacity="0.0"
     inkscape:pagecheckerboard="0"
     inkscape:deskcolor="#d1d1d1"
     inkscape:document-units="px"
     showgrid="false"
     inkscape:zoom="0.62533016"
     inkscape:cx="550.90897"
     inkscape:cy="303.83949"
     inkscape:window-width="1366"
     inkscape:window-height="697"
     inkscape:window-x="-8"
     inkscape:window-y="-8"
     inkscape:window-maximized="1"
     inkscape:current-layer="layer1"
     showguides="true"><inkscape:grid
       id="grid2"
       units="px"
       originx="-145.41667"
       originy="-263.81235"
       spacingx="1"
       spacingy="1"
       empcolor="#0099e5"
       empopacity="0.30196078"
       color="#0099e5"
       opacity="0.14901961"
       empspacing="5"
       dotted="false"
       gridanglex="30"
       gridanglez="30"
       visible="false" /><inkscape:page
       x="0"
       y="0"
       width="508.63971"
       height="608.35614"
       id="page1"
       margin="0"
       bleed="0" /><inkscape:page
       x="524.52289"
       y="1.5991555"
       width="508.64001"
       height="608.35999"
       id="page2"
       margin="0"
       bleed="0" /></sodipodi:namedview><defs
     id="defs1" /><g
     inkscape:label="Layer 1"
     inkscape:groupmode="layer"
     id="layer1"
     transform="translate(-145.41667,-263.81235)"><g
       id="g4"
       transform="translate(556.52714,173.93242)"
       inkscape:label="g4"><path
         id="path2"
         style="fill:#ff8c42;fill-opacity:1;stroke-width:0.413093"
         d="m 320.23308,263.83188 c -7.87319,-0.29544 -16.45686,2.62063 -24.10547,9.71875 -7.63313,7.08372 -7.63164,7.0838 -21.10742,5.44336 -97.00392,-11.80834 -162.81859,91.12149 -111.96875,175.11328 6.27222,10.36017 6.50618,11.26562 4.25586,16.45899 -14.62741,33.75759 17.79603,58.97667 45.29687,35.23242 6.39273,-5.5195 6.73324,-5.59292 14.26172,-3.10547 11.94162,3.94559 25.59892,5.34354 41.7207,4.27148 35.05349,-2.33101 63.60886,-20.06303 82.15235,-45.05273 0,0 1.98934,-2.80241 -1.60204,-5.65306 -3.59138,-2.85065 -6.52492,0.11789 -6.52492,0.11789 -7.3525,9.54171 -16.38312,17.95951 -26.97265,24.64453 -88.77305,56.04127 -196.20983,-39.60756 -150.27539,-133.78711 36.13477,-74.08724 136.93213,-78.53193 181.77343,-12.83593 0,0 3.00519,3.40971 6.76266,1.08368 3.75746,-2.32602 1.63187,-5.92548 1.63187,-5.92548 -1.4869,-2.26106 -3.06158,-4.49668 -4.73828,-6.69727 -9.29461,-12.19871 -9.29434,-12.19935 -6.43945,-20.81445 7.08268,-21.3734 -6.80009,-37.56291 -24.12109,-38.21289 z m -0.66407,9.41797 c 8.89045,-0.1679 16.16143,5.91351 16.8418,16.83594 0.36486,5.85728 -3.5167,11.56799 -4.14453,12.40039 -0.35526,0.47103 -5.30607,-3.42238 -8.20898,-5.1836 -4.8219,-2.92545 -10.19251,-6.16678 -16.50977,-8.99218 -3.32254,-1.48602 -7.38833,-3.5689 -7.20313,-4.15235 0.23999,-0.75603 0.59443,-1.7861 2.54883,-3.55273 5.42483,-4.90363 11.3415,-7.25475 16.67578,-7.35547 z M 245.10417,378.2479 c -1.91026,-0.18626 -3.14571,0.50568 -4.0625,1.95507 -2.25815,3.57004 -0.84297,7.2843 13.81445,17.10352 13.94093,9.33921 17.88182,10.14556 20.21289,6.97852 2.36913,-3.21874 2.00382,-7.14792 -13.1289,-17.2461 -8.59102,-5.73285 -13.65217,-8.48059 -16.83594,-8.79101 z m -67.30469,95.94531 c 0.65458,-0.39589 5.06159,2.9011 7.73047,4.83008 5.01092,3.6217 12.99394,9.38673 15.87305,11.36914 4.58576,3.15753 7.01328,4.39694 7.0039,4.98437 -0.009,0.58743 -1.15944,2.10363 -2.22265,3.25 -12.30641,13.26872 -33.16286,6.83683 -33.38281,-10.29492 -0.10628,-8.2776 4.05881,-13.57066 4.99804,-14.13867 z"
         sodipodi:nodetypes="sscsssssczccsczcscssssssssssssssssssccsss" /><text
         xml:space="preserve"
         style="font-size:96px;font-family:Oliver;-inkscape-font-specification:Oliver;fill:#010101;fill-opacity:1;stroke:none;stroke-width:0.759685"
         x="331.86743"
         y="419.9437"
         id="text1"><tspan
           sodipodi:role="line"
           id="tspan1"
           x="331.86743"
           y="419.9437"
           style="font-style:normal;font-variant:normal;font-weight:normal;font-stretch:normal;font-size:96px;font-family:'Balsamiq Sans';-inkscape-font-specification:'Balsamiq Sans'">ooksy</tspan></text></g><path
       id="path2-9"
       style="fill:#ff8c42;fill-opacity:1;stroke:none;stroke-width:0.872717;stroke-opacity:1"
       d="m 548.34325,300.63989 c -16.63323,-0.62415 -34.76743,5.53646 -50.9262,20.53224 -16.12606,14.96535 -16.12291,14.96552 -44.59239,11.49986 -204.93443,-24.94679 -343.97719,192.50697 -236.54975,369.95145 13.25096,21.88732 13.74522,23.8002 8.99111,34.77193 -30.90247,71.31766 37.59661,124.59652 95.69601,74.43345 13.50554,-11.66072 14.22491,-11.81584 30.12989,-6.56075 25.22836,8.33562 54.08132,11.28899 88.14084,9.0241 74.05544,-4.92458 134.38267,-42.38597 173.55841,-95.18023 0,0 4.20275,-5.92048 -3.38454,-11.94289 -7.5873,-6.0224 -13.78481,0.24907 -13.78481,0.24907 -15.53319,20.15821 -34.61164,37.94199 -56.98351,52.06504 C 351.09274,877.87822 124.11743,675.80661 221.1604,476.83906 297.50019,320.31933 510.44879,310.92931 605.18234,449.72135 c 0,0 6.34888,7.20349 14.28707,2.28943 7.93816,-4.91405 3.44757,-12.51842 3.44757,-12.51842 -3.1413,-4.7768 -6.46803,-9.49987 -10.01029,-14.14892 -19.63618,-25.77149 -19.63561,-25.77284 -13.60424,-43.97345 14.96315,-45.15433 -14.36615,-79.35694 -50.9592,-80.73011 z m -1.40295,19.89679 c 18.78233,-0.3547 34.1433,12.49312 35.58068,35.56831 0.77081,12.37432 -7.42952,24.43899 -8.7559,26.19756 -0.75055,0.99512 -11.20982,-7.23026 -17.34264,-10.95109 -10.18693,-6.18042 -21.53311,-13.02818 -34.87921,-18.99724 -7.01933,-3.13943 -15.60887,-7.5398 -15.21762,-8.77243 0.50701,-1.59722 1.25581,-3.77339 5.38476,-7.50564 11.46071,-10.35961 23.96052,-15.32668 35.22993,-15.53947 z M 389.62285,542.35984 c -4.0357,-0.3935 -6.64576,1.06832 -8.5826,4.13036 -4.77067,7.54222 -1.78089,15.3891 29.18497,36.1336 29.45217,19.73039 37.77786,21.43391 42.70257,14.74311 5.00513,-6.80006 4.23335,-15.101 -27.73664,-36.43483 -18.14974,-12.11144 -28.84213,-17.91644 -35.5683,-18.57224 z M 247.43222,745.05781 c 1.38289,-0.83637 10.69332,6.12898 16.3317,10.20422 10.58628,7.65135 27.45154,19.83079 33.53406,24.01892 9.68807,6.67073 14.81654,9.28914 14.79672,10.53017 -0.019,1.24103 -2.44948,4.44422 -4.69566,6.86609 -25.99902,28.03203 -70.06121,14.44376 -70.52588,-21.74947 -0.22453,-17.48759 8.57481,-28.66993 10.55906,-29.86993 z"
       sodipodi:nodetypes="sscsssssczccsczcscssssssssssssssssssccsss" /></g></svg>
